<?xml version="1.0" encoding="UTF-8" standalone="no"?>
<!DOCTYPE svg PUBLIC "-//W3C//DTD SVG 1.1//EN" "http://www.w3.org/Graphics/SVG/1.1/DTD/svg11.dtd">
<svg width="100%" height="100%" viewBox="0 0 1024 135" version="1.1" xmlns="http://www.w3.org/2000/svg" xmlns:xlink="http://www.w3.org/1999/xlink" xml:space="preserve" xmlns:serif="http://www.serif.com/" style="fill-rule:evenodd;clip-rule:evenodd;stroke-linecap:round;stroke-linejoin:round;">
    <g transform="matrix(0.451816,0,0,0.451816,85.7152,-395.214)">
        <path d="M254.226,1076.59L260.795,1109.58L268.824,1078.05L314.953,921.411L331.157,921.411L376.702,1078.05L384.585,1109.87L391.592,1076.59L429.984,921.411L448.377,921.411L393.927,1133.96L376.702,1133.96L328.529,967.686L323.128,946.666L317.873,967.686L268.532,1133.96L251.307,1133.96L197.003,921.411L215.396,921.411L254.226,1076.59Z" style="fill:rgb(74,85,104);fill-rule:nonzero;"/>
        <path d="M464.727,1052.65C464.727,1037.46 467.671,1023.79 473.558,1011.63C479.446,999.461 487.767,989.997 498.521,983.233C509.274,976.47 521.464,973.088 535.088,973.088C556.109,973.088 573.14,980.46 586.181,995.203C599.221,1009.95 605.742,1029.48 605.742,1053.81L605.742,1057.46C605.742,1072.74 602.798,1086.49 596.91,1098.7C591.022,1110.91 582.726,1120.33 572.021,1126.95C561.316,1133.57 549.102,1136.88 535.38,1136.88C514.457,1136.88 497.45,1129.5 484.361,1114.76C471.271,1100.02 464.727,1080.48 464.727,1056.15L464.727,1052.65ZM482.244,1057.46C482.244,1076.34 487.134,1091.84 496.915,1103.96C506.695,1116.07 519.517,1122.13 535.38,1122.13C551.146,1122.13 563.919,1116.07 573.699,1103.96C583.48,1091.84 588.37,1075.86 588.37,1056L588.37,1052.65C588.37,1040.58 586.132,1029.53 581.655,1019.51C577.179,1009.49 570.902,1001.72 562.824,996.225C554.747,990.727 545.501,987.977 535.088,987.977C519.517,987.977 506.817,994.084 496.988,1006.3C487.159,1018.51 482.244,1034.5 482.244,1054.25L482.244,1057.46Z" style="fill:rgb(74,85,104);fill-rule:nonzero;"/>
        <path d="M714.787,990.897C711.089,990.216 707.148,989.875 702.963,989.875C692.063,989.875 682.843,992.916 675.3,998.999C667.758,1005.08 662.381,1013.91 659.17,1025.49L659.17,1133.96L641.798,1133.96L641.798,976.007L658.878,976.007L659.17,1001.12C668.415,982.43 683.256,973.088 703.693,973.088C708.559,973.088 712.403,973.72 715.225,974.985L714.787,990.897Z" style="fill:rgb(74,85,104);fill-rule:nonzero;"/>
        <rect x="744.421" y="909.733" width="17.517" height="224.223" style="fill:rgb(74,85,104);fill-rule:nonzero;"/>
        <path d="M802.374,1053.52C802.374,1029 807.849,1009.46 818.797,994.911C829.745,980.362 844.611,973.088 863.393,973.088C884.706,973.088 900.958,981.506 912.15,998.342L912.15,909.733L929.521,909.733L929.521,1133.96L913.172,1133.96L912.442,1112.93C901.25,1128.89 884.803,1136.88 863.101,1136.88C844.903,1136.88 830.232,1129.55 819.089,1114.91C807.946,1100.26 802.374,1080.48 802.374,1055.57L802.374,1053.52ZM820.038,1056.59C820.038,1076.73 824.076,1092.62 832.154,1104.25C840.231,1115.88 851.618,1121.69 866.313,1121.69C887.82,1121.69 903.099,1112.2 912.15,1093.23L912.15,1019.07C903.099,998.537 887.918,988.269 866.605,988.269C851.91,988.269 840.475,994.036 832.3,1005.57C824.125,1017.1 820.038,1034.11 820.038,1056.59Z" style="fill:rgb(74,85,104);fill-rule:nonzero;"/>
        <path d="M1018.86,1076.59L1025.43,1109.58L1033.46,1078.05L1079.59,921.411L1095.79,921.411L1141.34,1078.05L1149.22,1109.87L1156.23,1076.59L1194.62,921.411L1213.01,921.411L1158.56,1133.96L1141.34,1133.96L1093.16,967.686L1087.76,946.666L1082.51,967.686L1033.17,1133.96L1015.94,1133.96L961.637,921.411L980.03,921.411L1018.86,1076.59Z" style="fill:rgb(74,85,104);fill-rule:nonzero;"/>
        <path d="M1263.08,1133.96L1245.56,1133.96L1245.56,976.007L1263.08,976.007L1263.08,1133.96ZM1242.5,930.316C1242.5,927.007 1243.57,924.209 1245.71,921.922C1247.85,919.635 1250.77,918.492 1254.47,918.492C1258.17,918.492 1261.11,919.635 1263.3,921.922C1265.49,924.209 1266.59,927.007 1266.59,930.316C1266.59,933.625 1265.49,936.398 1263.3,938.637C1261.11,940.875 1258.17,941.994 1254.47,941.994C1250.77,941.994 1247.85,940.875 1245.71,938.637C1243.57,936.398 1242.5,933.625 1242.5,930.316Z" style="fill:rgb(74,85,104);fill-rule:nonzero;"/>
        <path d="M1303.52,1053.52C1303.52,1029 1308.99,1009.46 1319.94,994.911C1330.89,980.362 1345.75,973.088 1364.54,973.088C1385.85,973.088 1402.1,981.506 1413.29,998.342L1413.29,909.733L1430.66,909.733L1430.66,1133.96L1414.32,1133.96L1413.59,1112.93C1402.39,1128.89 1385.95,1136.88 1364.25,1136.88C1346.05,1136.88 1331.38,1129.55 1320.23,1114.91C1309.09,1100.26 1303.52,1080.48 1303.52,1055.57L1303.52,1053.52ZM1321.18,1056.59C1321.18,1076.73 1325.22,1092.62 1333.3,1104.25C1341.38,1115.88 1352.76,1121.69 1367.46,1121.69C1388.96,1121.69 1404.24,1112.2 1413.29,1093.23L1413.29,1019.07C1404.24,998.537 1389.06,988.269 1367.75,988.269C1353.05,988.269 1341.62,994.036 1333.44,1005.57C1325.27,1017.1 1321.18,1034.11 1321.18,1056.59Z" style="fill:rgb(74,85,104);fill-rule:nonzero;"/>
        <path d="M1537.81,1136.88C1524.38,1136.88 1512.24,1133.57 1501.39,1126.95C1490.54,1120.33 1482.1,1111.11 1476.06,1099.29C1470.03,1087.46 1467.01,1074.2 1467.01,1059.51L1467.01,1053.23C1467.01,1038.05 1469.96,1024.38 1475.85,1012.21C1481.73,1000.05 1489.93,990.483 1500.44,983.525C1510.95,976.567 1522.34,973.088 1534.6,973.088C1553.77,973.088 1568.98,979.632 1580.22,992.722C1591.46,1005.81 1597.08,1023.69 1597.08,1046.37L1597.08,1056.15L1484.38,1056.15L1484.38,1059.51C1484.38,1077.41 1489.52,1092.33 1499.79,1104.25C1510.05,1116.17 1522.97,1122.13 1538.54,1122.13C1547.88,1122.13 1556.13,1120.43 1563.29,1117.02C1570.44,1113.62 1576.93,1108.17 1582.77,1100.67L1593.72,1108.99C1580.88,1127.58 1562.24,1136.88 1537.81,1136.88ZM1534.6,987.977C1521.46,987.977 1510.39,992.795 1501.39,1002.43C1492.39,1012.06 1486.91,1025.01 1484.97,1041.26L1579.71,1041.26L1579.71,1039.36C1579.22,1024.18 1574.89,1011.82 1566.72,1002.28C1558.54,992.746 1547.84,987.977 1534.6,987.977Z" style="fill:rgb(74,85,104);fill-rule:nonzero;"/>
        <path d="M1653.28,1118.77L1758.24,1118.77L1758.24,1133.96L1635.18,1133.96L1635.18,921.411L1653.28,921.411L1653.28,1118.77Z" style="fill:rgb(74,85,104);fill-rule:nonzero;"/>
        <path d="M1888.31,1133.96C1886.56,1128.99 1885.43,1121.64 1884.95,1111.91C1878.82,1119.89 1871.01,1126.05 1861.52,1130.38C1852.03,1134.71 1841.98,1136.88 1831.38,1136.88C1816.19,1136.88 1803.91,1132.64 1794.52,1124.17C1785.12,1115.71 1780.43,1105 1780.43,1092.06C1780.43,1076.68 1786.83,1064.52 1799.62,1055.57C1812.42,1046.61 1830.26,1042.13 1853.13,1042.13L1884.8,1042.13L1884.8,1024.18C1884.8,1012.89 1881.32,1004.01 1874.37,997.539C1867.41,991.067 1857.26,987.831 1843.93,987.831C1831.76,987.831 1821.69,990.946 1813.71,997.174C1805.73,1003.4 1801.74,1010.9 1801.74,1019.65L1784.22,1019.51C1784.22,1006.96 1790.06,996.079 1801.74,986.883C1813.42,977.686 1827.77,973.088 1844.81,973.088C1862.42,973.088 1876.31,977.491 1886.48,986.299C1896.65,995.106 1901.88,1007.39 1902.17,1023.16L1902.17,1097.9C1902.17,1113.18 1903.78,1124.61 1906.99,1132.2L1906.99,1133.96L1888.31,1133.96ZM1833.42,1121.4C1845.1,1121.4 1855.53,1118.58 1864.73,1112.93C1873.93,1107.29 1880.62,1099.75 1884.8,1090.31L1884.8,1055.57L1853.56,1055.57C1836.14,1055.76 1822.52,1058.95 1812.69,1065.13C1802.86,1071.31 1797.95,1079.8 1797.95,1090.6C1797.95,1099.46 1801.23,1106.8 1807.8,1112.64C1814.37,1118.48 1822.91,1121.4 1833.42,1121.4Z" style="fill:rgb(74,85,104);fill-rule:nonzero;"/>
        <path d="M2075.89,1056.59C2075.89,1081.21 2070.44,1100.75 2059.54,1115.2C2048.64,1129.65 2033.99,1136.88 2015.6,1136.88C1993.61,1136.88 1976.96,1128.7 1965.67,1112.35L1964.94,1133.96L1948.6,1133.96L1948.6,909.733L1965.97,909.733L1965.97,998.926C1977.06,981.7 1993.51,973.088 2015.31,973.088C2033.99,973.088 2048.76,980.216 2059.61,994.474C2070.46,1008.73 2075.89,1028.56 2075.89,1053.96L2075.89,1056.59ZM2058.37,1053.52C2058.37,1032.69 2054.33,1016.61 2046.26,1005.28C2038.18,993.938 2026.79,988.269 2012.1,988.269C2000.9,988.269 1991.42,991.019 1983.63,996.517C1975.85,1002.02 1969.96,1010.07 1965.97,1020.68L1965.97,1091.91C1974.73,1111.77 1990.2,1121.69 2012.39,1121.69C2026.79,1121.69 2038.06,1116 2046.18,1104.61C2054.31,1093.23 2058.37,1076.2 2058.37,1053.52Z" style="fill:rgb(74,85,104);fill-rule:nonzero;"/>
    </g>
    <g transform="matrix(7.11176,0,0,7.11176,-18.2103,-18.2103)">
        <path d="M3.055,11L5,11C6.105,11 7,11.895 7,13L7,14C7,15.105 7.895,16 9,16C10.105,16 11,16.895 11,18L11,20.945M8,3.936L8,5.5C8,6.881 9.119,8 10.5,8L11,8C12.105,8 13,8.895 13,10C13,11.105 13.895,12 15,12C16.105,12 17,11.105 17,10C17,8.895 17.895,8 19,8L20.065,8M15,20.488L15,18C15,16.895 15.895,16 17,16L20.065,16M21,12C21,16.971 16.971,21 12,21C7.029,21 3,16.971 3,12C3,7.029 7.029,3 12,3C16.971,3 21,7.029 21,12Z" style="fill:none;fill-rule:nonzero;stroke:rgb(74,85,104);stroke-width:0.88px;"/>
    </g>
</svg>
